<svg width="19" height="19" viewBox="0 0 19 19" fill="none" xmlns="http://www.w3.org/2000/svg">
<path d="M18.2158 8.90918L8.99219 0.903808C8.92139 0.842773 8.83105 0.808594 8.73584 0.808594H6.5752C6.39453 0.808594 6.31152 1.0332 6.44824 1.15039L14.998 8.57227H0.710937C0.603516 8.57227 0.515625 8.66016 0.515625 8.76758V10.2324C0.515625 10.3398 0.603516 10.4277 0.710937 10.4277H14.9956L6.4458 17.8496C6.30908 17.9692 6.39209 18.1914 6.57275 18.1914H8.80664C8.85303 18.1914 8.89941 18.1743 8.93359 18.1426L18.2158 10.0908C18.3003 10.0173 18.3681 9.92655 18.4145 9.82463C18.461 9.7227 18.485 9.612 18.485 9.5C18.485 9.388 18.461 9.2773 18.4145 9.17537C18.3681 9.07345 18.3003 8.98267 18.2158 8.90918Z" fill="#9F0013"/>
</svg>
