<svg width="191" height="70" viewBox="0 0 191 70" fill="none" xmlns="http://www.w3.org/2000/svg">
<path d="M91.373 25.6518L91.4434 27.4096C92.6035 26.0033 94.1328 25.3002 96.0312 25.3002C98.1523 25.3002 99.6348 26.2201 100.479 28.06C101.674 26.2201 103.338 25.3002 105.471 25.3002C108.975 25.3002 110.768 27.4857 110.85 31.8568V44.6713H107.756V32.1557C107.756 30.7729 107.51 29.7475 107.018 29.0795C106.525 28.3998 105.693 28.06 104.521 28.06C103.584 28.06 102.822 28.4232 102.236 29.1498C101.65 29.8764 101.311 30.8022 101.217 31.9272V44.6713H98.0879V32.015C98.0527 29.3783 96.9805 28.06 94.8711 28.06C93.3008 28.06 92.1934 28.8451 91.5488 30.4154V44.6713H88.4551V25.6518H91.373ZM122.152 42.3686C123.184 42.3686 124.01 42.0522 124.631 41.4193C125.252 40.7748 125.592 39.8607 125.65 38.6772H128.586C128.516 40.5053 127.865 42.0229 126.635 43.2299C125.416 44.4252 123.922 45.0229 122.152 45.0229C119.797 45.0229 117.998 44.2846 116.756 42.808C115.525 41.3197 114.91 39.1107 114.91 36.1811V34.0893C114.91 31.2182 115.525 29.0385 116.756 27.5502C117.986 26.0502 119.779 25.3002 122.135 25.3002C124.08 25.3002 125.621 25.9154 126.758 27.1459C127.906 28.3764 128.516 30.058 128.586 32.1908H125.65C125.58 30.7846 125.24 29.7299 124.631 29.0268C124.033 28.3236 123.201 27.9721 122.135 27.9721C120.752 27.9721 119.727 28.4291 119.059 29.3432C118.391 30.2455 118.045 31.7338 118.021 33.808V36.2338C118.021 38.4721 118.35 40.0541 119.006 40.9799C119.674 41.9057 120.723 42.3686 122.152 42.3686ZM150.225 44.6713C150.037 44.2611 149.902 43.5697 149.82 42.5971C148.719 44.2143 147.312 45.0229 145.602 45.0229C143.879 45.0229 142.531 44.5424 141.559 43.5815C140.598 42.6088 140.117 41.2436 140.117 39.4857C140.117 37.5522 140.773 36.017 142.086 34.8803C143.398 33.7436 145.197 33.1635 147.482 33.14H149.768V31.1186C149.768 29.9818 149.516 29.1732 149.012 28.6928C148.508 28.2123 147.74 27.9721 146.709 27.9721C145.771 27.9721 145.01 28.2533 144.424 28.8158C143.838 29.3666 143.545 30.0697 143.545 30.9252H140.434C140.434 29.9525 140.721 29.0268 141.295 28.1479C141.869 27.2572 142.643 26.56 143.615 26.0561C144.588 25.5522 145.672 25.3002 146.867 25.3002C148.812 25.3002 150.289 25.7865 151.297 26.7592C152.316 27.7201 152.838 29.1264 152.861 30.9779V40.5756C152.873 42.0404 153.072 43.3119 153.459 44.39V44.6713H150.225ZM146.076 42.1928C146.838 42.1928 147.564 41.9818 148.256 41.56C148.947 41.1381 149.451 40.6107 149.768 39.9779V35.4428H148.01C146.533 35.4662 145.367 35.8002 144.512 36.4447C143.656 37.0775 143.229 37.9682 143.229 39.1166C143.229 40.1947 143.445 40.9799 143.879 41.4721C144.312 41.9525 145.045 42.1928 146.076 42.1928ZM171.441 36.0756C171.441 39.0873 170.896 41.3315 169.807 42.808C168.729 44.2846 167.199 45.0229 165.219 45.0229C163.309 45.0229 161.838 44.3022 160.807 42.8607V51.9838H157.713V25.6518H160.525L160.684 27.7611C161.727 26.1205 163.221 25.3002 165.166 25.3002C167.252 25.3002 168.811 26.0268 169.842 27.4799C170.873 28.933 171.406 31.1068 171.441 34.0014V36.0756ZM168.348 34.3002C168.348 32.1674 168.02 30.5971 167.363 29.5893C166.707 28.5697 165.652 28.06 164.199 28.06C162.711 28.06 161.58 28.8041 160.807 30.2924V40.1889C161.568 41.642 162.711 42.3686 164.234 42.3686C165.641 42.3686 166.672 41.8647 167.328 40.8568C167.996 39.8373 168.336 38.2846 168.348 36.1986V34.3002ZM189.195 36.0756C189.195 39.0873 188.65 41.3315 187.561 42.808C186.482 44.2846 184.953 45.0229 182.973 45.0229C181.062 45.0229 179.592 44.3022 178.561 42.8607V51.9838H175.467V25.6518H178.279L178.438 27.7611C179.48 26.1205 180.975 25.3002 182.92 25.3002C185.006 25.3002 186.564 26.0268 187.596 27.4799C188.627 28.933 189.16 31.1068 189.195 34.0014V36.0756ZM186.102 34.3002C186.102 32.1674 185.773 30.5971 185.117 29.5893C184.461 28.5697 183.406 28.06 181.953 28.06C180.465 28.06 179.334 28.8041 178.561 30.2924V40.1889C179.322 41.642 180.465 42.3686 181.988 42.3686C183.395 42.3686 184.426 41.8647 185.082 40.8568C185.75 39.8373 186.09 38.2846 186.102 36.1986V34.3002Z" fill="#005212"/>
<path d="M33 0.842984C14.773 0.842984 0 16.3107 0 35.3884C0 54.469 14.773 69.9339 33 69.9339C51.2242 69.9339 66 54.469 66 35.3884C66.0013 32.1324 65.5634 28.8925 64.6992 25.7646C64.5373 25.3528 64.2295 25.0223 63.8403 24.8423C63.4512 24.6623 63.0106 24.6466 62.6106 24.7986C62.2106 24.9505 61.8822 25.2583 61.6939 25.6578C61.5056 26.0572 61.4719 26.5173 61.6 26.9421H61.5945C62.3232 29.6568 62.7 32.4924 62.7 35.3884C62.7107 39.473 61.9475 43.5193 60.4544 47.2931C58.9614 51.0669 56.7682 54.4932 54.0017 57.3737C51.2502 60.2698 47.9771 62.5658 44.3722 64.1288C40.7672 65.6918 36.9019 66.4907 33 66.4793C29.0981 66.4906 25.2328 65.6916 21.6279 64.1286C18.023 62.5656 14.7499 60.2697 11.9982 57.3737C9.23158 54.4934 7.03822 51.0671 5.54515 47.2933C4.05208 43.5195 3.28897 39.4731 3.3 35.3884C3.28927 31.3038 4.05252 27.2575 5.54557 23.4838C7.03862 19.71 9.23183 16.2837 11.9982 13.4031C14.7497 10.5069 18.0227 8.21081 21.6277 6.64782C25.2327 5.08483 29.0981 4.28598 33 4.29753C40.084 4.29753 46.7857 6.87692 52.1345 11.6096C51.7964 12.5079 51.7628 13.5003 52.0391 14.4213C52.3155 15.3424 52.8851 16.1364 53.6531 16.6709C54.421 17.2055 55.3408 17.4483 56.2591 17.3588C57.1773 17.2693 58.0385 16.853 58.699 16.1792C59.3595 15.5054 59.7793 14.615 59.8885 13.6564C59.9977 12.6977 59.7896 11.7289 59.299 10.9114C58.8084 10.094 58.0648 9.47734 57.1924 9.16434C56.32 8.85134 55.3715 8.86091 54.505 9.19147C48.5267 3.79595 40.8933 0.832594 33 0.842984ZM29.04 17.7703L17.49 49.1548H24.7225L26.6117 43.8348H37.5265L35.5492 37.9563H28.3635L33.0385 24.4519L41.3545 49.1519H48.5897L37.0425 17.7703H29.04Z" fill="#005212"/>
</svg>
